<?xml version="1.0" ?><!DOCTYPE svg  PUBLIC '-//W3C//DTD SVG 1.1//EN'  'http://www.w3.org/Graphics/SVG/1.1/DTD/svg11.dtd'><svg enable-background="new 0 0 128 128" height="128px" id="Layer_1" version="1.1" viewBox="0 0 128 128" width="128px" xml:space="preserve" xmlns="http://www.w3.org/2000/svg" xmlns:xlink="http://www.w3.org/1999/xlink"><g><path d="M72.531,15.456c11.424,0,20.715,9.295,20.715,20.717c0,0.539-0.021,1.086-0.066,1.639   c5.051,2.385,8.27,7.424,8.27,13.064c0,7.969-6.484,14.454-14.451,14.454H40.77c-7.969,0-14.453-6.485-14.453-14.454   c0-7.186,5.373-13.295,12.395-14.303c1.086-6.816,6.918-11.85,13.928-11.85c0.832,0,1.666,0.076,2.486,0.223   C58.924,19.073,65.52,15.456,72.531,15.456" fill="#A4DEF8"/><path d="M77.555,75.789c-0.002,0-0.002,0-0.004,0l-8.527,0.02l3.906-6.479H57.982l-7.145,13.424   c-0.33,0.621-0.311,1.371,0.053,1.973c0.363,0.6,1.014,0.967,1.713,0.967c0.004,0,0.006,0,0.008,0l8.594-0.031l-8.039,20.141   c-0.369,0.924-0.004,1.979,0.859,2.475c0.312,0.18,0.656,0.268,0.996,0.268c0.598,0,1.186-0.268,1.576-0.768l22.531-28.754   c0.473-0.604,0.559-1.424,0.223-2.111C79.018,76.225,78.32,75.789,77.555,75.789z" fill="#FFFFFF"/></g><g><path clip-rule="evenodd" d="M127.883,104c0,13.254-10.744,24-24,24h-80   c-13.254,0-24-10.746-24-24V24c0-13.254,10.746-24,24-24h80c13.256,0,24,10.746,24,24V104z" fill="#393267" fill-rule="evenodd"/><path d="M70.762,102.385c-16.08,0-30.582-10.154-36.088-25.27c-7.244-19.892,3.049-41.97,22.945-49.217   c3.934-1.431,8.109-2.198,12.408-2.282c0.627,0.007,1.219,0.385,1.439,0.986c0.219,0.603,0.031,1.277-0.467,1.681   c-11.773,9.509-16.213,25.434-11.049,39.628c5.066,13.912,18.434,23.261,33.264,23.261c0.225,0,0.451-0.002,0.676-0.008   c0.01,0,0.02,0,0.029,0c0.629,0,1.193,0.395,1.408,0.986c0.221,0.604,0.033,1.277-0.467,1.682c-3.346,2.703-7.041,4.801-10.98,6.23   C79.645,101.604,75.23,102.385,70.762,102.385z" fill="#FFFFFF"/></g></svg>