<?xml version="1.0" ?><!DOCTYPE svg  PUBLIC '-//W3C//DTD SVG 1.1//EN'  'http://www.w3.org/Graphics/SVG/1.1/DTD/svg11.dtd'><svg enable-background="new 0 0 128 128" height="128px" id="Layer_1" version="1.1" viewBox="0 0 128 128" width="128px" xml:space="preserve" xmlns="http://www.w3.org/2000/svg" xmlns:xlink="http://www.w3.org/1999/xlink"><g><path d="M128,103.998c0,13.254-10.744,24-24,24H24c-13.254,0-24-10.746-24-24v-80c0-13.254,10.746-24,24-24h80   c13.256,0,24,10.746,24,24V103.998z" fill="#369DD2"/><g><path d="M64,31.369c-0.83,0-1.5-0.672-1.5-1.5V16.135c0-0.828,0.67-1.5,1.5-1.5c0.828,0,1.5,0.672,1.5,1.5v13.734    C65.5,30.697,64.828,31.369,64,31.369z" fill="#FFFFFF"/></g><g><path d="M64,113.361c-0.83,0-1.5-0.672-1.5-1.5V98.125c0-0.828,0.67-1.5,1.5-1.5c0.828,0,1.5,0.672,1.5,1.5v13.736    C65.5,112.689,64.828,113.361,64,113.361z" fill="#FFFFFF"/></g><g><path d="M111.863,65.498h-13.74c-0.83,0-1.5-0.672-1.5-1.5s0.67-1.5,1.5-1.5h13.74c0.828,0,1.5,0.672,1.5,1.5    S112.691,65.498,111.863,65.498z" fill="#FFFFFF"/></g><g><path d="M29.875,65.498H16.138c-0.83,0-1.5-0.672-1.5-1.5s0.67-1.5,1.5-1.5h13.736c0.828,0,1.5,0.672,1.5,1.5    S30.703,65.498,29.875,65.498z" fill="#FFFFFF"/></g><path d="M64.001,88.24L64.001,88.24c-13.367-0.004-24.242-10.879-24.242-24.242   c0-13.364,10.875-24.24,24.242-24.243c13.366,0,24.241,10.875,24.241,24.243C88.242,77.365,77.367,88.24,64.001,88.24z" fill="#FFFFFF"/><g><path d="M88.131,41.367c-0.385,0-0.768-0.146-1.061-0.439c-0.586-0.586-0.586-1.535,0-2.121l9.715-9.715    c0.586-0.586,1.535-0.586,2.121,0c0.586,0.586,0.586,1.535,0,2.121l-9.715,9.715C88.898,41.221,88.514,41.367,88.131,41.367z" fill="#FFFFFF"/></g><g><path d="M30.156,99.344c-0.385,0-0.768-0.146-1.061-0.439c-0.586-0.586-0.586-1.534,0-2.12l9.717-9.718    c0.586-0.586,1.535-0.586,2.121,0s0.586,1.535,0,2.121l-9.717,9.717C30.923,99.197,30.539,99.344,30.156,99.344z" fill="#FFFFFF"/></g><g><path d="M39.871,41.367c-0.385,0-0.768-0.146-1.061-0.439l-9.715-9.715c-0.586-0.586-0.586-1.535,0-2.121    c0.586-0.586,1.535-0.586,2.121,0l9.715,9.715c0.586,0.586,0.586,1.535,0,2.121C40.638,41.221,40.253,41.367,39.871,41.367z" fill="#FFFFFF"/></g><g><path d="M97.846,99.344c-0.385,0-0.768-0.146-1.061-0.439l-9.715-9.715c-0.586-0.586-0.586-1.535,0-2.121    s1.535-0.586,2.121,0l9.715,9.716c0.586,0.586,0.586,1.534,0,2.12C98.613,99.197,98.229,99.344,97.846,99.344z" fill="#FFFFFF"/></g></g></svg>