<?xml version="1.0" ?><!DOCTYPE svg  PUBLIC '-//W3C//DTD SVG 1.1//EN'  'http://www.w3.org/Graphics/SVG/1.1/DTD/svg11.dtd'><svg enable-background="new 0 0 128 128" height="128px" id="Layer_1" version="1.1" viewBox="0 0 128 128" width="128px" xml:space="preserve" xmlns="http://www.w3.org/2000/svg" xmlns:xlink="http://www.w3.org/1999/xlink"><g><path d="M72.531,15.456c11.424,0,20.715,9.295,20.715,20.717c0,0.539-0.021,1.086-0.066,1.639   c5.051,2.385,8.27,7.424,8.27,13.064c0,7.969-6.484,14.454-14.451,14.454H40.77c-7.969,0-14.453-6.485-14.453-14.454   c0-7.186,5.373-13.295,12.395-14.303c1.086-6.816,6.918-11.85,13.928-11.85c0.832,0,1.666,0.076,2.486,0.223   C58.924,19.073,65.52,15.456,72.531,15.456" fill="#A4DEF8"/><path d="M77.555,75.789c-0.002,0-0.002,0-0.004,0l-8.527,0.02l3.906-6.479H57.982l-7.145,13.424   c-0.33,0.621-0.311,1.371,0.053,1.973c0.363,0.6,1.014,0.967,1.713,0.967c0.004,0,0.006,0,0.008,0l8.594-0.031l-8.039,20.141   c-0.369,0.924-0.004,1.979,0.859,2.475c0.312,0.18,0.656,0.268,0.996,0.268c0.598,0,1.186-0.268,1.576-0.768l22.531-28.754   c0.473-0.604,0.559-1.424,0.223-2.111C79.018,76.225,78.32,75.789,77.555,75.789z" fill="#FFFFFF"/></g><g><path clip-rule="evenodd" d="M127.883,104c0,13.254-10.745,24-24,24h-80   c-13.255,0-24-10.746-24-24V24c0-13.254,10.745-24,24-24h80c13.255,0,24,10.746,24,24V104z" fill="#393267" fill-rule="evenodd"/><path d="M99.21,100.361H46.587c-9.187,0-16.661-7.476-16.661-16.664c0-8.232,6.116-15.239,14.137-16.465   c1.312-7.786,8.004-13.516,16.036-13.516c0.913,0,1.827,0.078,2.729,0.232c4.376-6.676,11.91-10.779,19.918-10.779   c13.116,0,23.787,10.673,23.787,23.791c0,0.569-0.022,1.151-0.066,1.738c5.748,2.771,9.402,8.541,9.402,14.998   C115.868,92.886,108.396,100.361,99.21,100.361z" fill="#FFFFFF"/><path d="M31.013,71.771c2.604-3.39,6.281-5.94,10.549-7.076c0.292-1.039,0.668-2.038,1.119-2.991   c-1.049-1.534-1.918-3.209-2.549-5.011c-3.156-9.006,0.023-19.218,7.729-24.832c0.512-0.373,0.719-1.037,0.51-1.634   c-0.21-0.599-0.785-0.988-1.418-0.96c-2.412,0.106-4.793,0.567-7.074,1.366c-12.842,4.5-19.629,18.607-15.129,31.45   C26.085,65.893,28.271,69.164,31.013,71.771z" fill="#FFFFFF"/></g></svg>