<?xml version="1.0" ?><!DOCTYPE svg  PUBLIC '-//W3C//DTD SVG 1.1//EN'  'http://www.w3.org/Graphics/SVG/1.1/DTD/svg11.dtd'><svg enable-background="new 0 0 128 128" height="128px" id="Layer_1" version="1.1" viewBox="0 0 128 128" width="128px" xml:space="preserve" xmlns="http://www.w3.org/2000/svg" xmlns:xlink="http://www.w3.org/1999/xlink"><g><path clip-rule="evenodd" d="M127.883,104c0,13.254-10.744,24-24,24h-80   c-13.254,0-24-10.746-24-24V24c0-13.254,10.746-24,24-24h80c13.256,0,24,10.746,24,24V104z" fill="#399DD2" fill-rule="evenodd"/><g><g><path d="M89.93,93.991c-0.498,0-0.994-0.065-1.479-0.195c-3.043-0.814-4.855-3.953-4.043-6.996     c0.191-0.714,0.512-1.371,0.951-1.954l6.988-9.166c0.244-0.323,0.66-0.468,1.053-0.359c0.393,0.104,0.682,0.437,0.734,0.838     l1.469,11.429c0.086,0.721,0.035,1.446-0.154,2.164C94.779,92.249,92.51,93.991,89.93,93.991z" fill="#FFFFFF"/><path d="M62.636,93.991c-0.498,0-0.994-0.065-1.479-0.195c-3.043-0.814-4.855-3.953-4.043-6.996     c0.191-0.714,0.512-1.371,0.951-1.954l6.989-9.166c0.244-0.323,0.66-0.468,1.053-0.359c0.393,0.104,0.682,0.437,0.734,0.838     l1.469,11.429c0.086,0.721,0.035,1.446-0.154,2.164C67.486,92.249,65.217,93.991,62.636,93.991z" fill="#FFFFFF"/><path d="M35.346,93.991c-0.498,0-0.996-0.065-1.48-0.195c-3.043-0.814-4.855-3.953-4.041-6.996     c0.191-0.714,0.512-1.371,0.949-1.954l6.988-9.166c0.246-0.323,0.66-0.468,1.055-0.359c0.39,0.104,0.681,0.437,0.732,0.838     l1.469,11.429c0.088,0.721,0.035,1.446-0.154,2.164C40.195,92.249,37.926,93.991,35.346,93.991z" fill="#FFFFFF"/><path d="M44.992,112.658c-0.498,0-0.994-0.065-1.479-0.195c-3.043-0.814-4.855-3.953-4.043-6.996     c0.191-0.714,0.512-1.371,0.951-1.954l6.988-9.166c0.244-0.323,0.66-0.468,1.053-0.359c0.393,0.104,0.682,0.437,0.734,0.838     l1.469,11.429c0.086,0.721,0.035,1.446-0.154,2.164C49.841,110.916,47.572,112.658,44.992,112.658z" fill="#FFFFFF"/><path d="M72.283,112.658c-0.498,0-0.994-0.065-1.479-0.195c-3.043-0.814-4.855-3.953-4.043-6.996     c0.191-0.714,0.512-1.371,0.951-1.954l6.988-9.166c0.244-0.323,0.66-0.468,1.053-0.359c0.393,0.104,0.682,0.437,0.734,0.838     l1.469,11.429c0.086,0.721,0.035,1.446-0.154,2.164C77.133,110.916,74.863,112.658,72.283,112.658z" fill="#FFFFFF"/></g><path d="M72.531,15.342c11.424,0,20.715,9.294,20.715,20.717c0,0.538-0.021,1.086-0.066,1.638    c5.051,2.386,8.27,7.424,8.27,13.065c0,7.969-6.484,14.452-14.451,14.452H40.769c-7.968,0-14.453-6.483-14.453-14.452    c0-7.186,5.373-13.296,12.395-14.303c1.085-6.817,6.917-11.85,13.927-11.85c0.832,0,1.666,0.075,2.486,0.222    C58.923,18.958,65.52,15.342,72.531,15.342" fill="#A4DEF8"/></g></g></svg>