<?xml version="1.0" ?><!DOCTYPE svg  PUBLIC '-//W3C//DTD SVG 1.1//EN'  'http://www.w3.org/Graphics/SVG/1.1/DTD/svg11.dtd'><svg enable-background="new 0 0 128 128" height="128px" id="Layer_1" version="1.1" viewBox="0 0 128 128" width="128px" xml:space="preserve" xmlns="http://www.w3.org/2000/svg" xmlns:xlink="http://www.w3.org/1999/xlink"><path d="M127.883,104c0,13.254-10.744,24-24,24h-80c-13.254,0-24-10.746-24-24V24c0-13.254,10.746-24,24-24h80  c13.256,0,24,10.746,24,24V104z" fill="#393166"/><g><g><path d="M50.811,88.546c-3.209,0-5.818,2.608-5.818,5.815c0,3.209,2.609,5.818,5.818,5.818    c3.207,0,5.818-2.609,5.818-5.818C56.629,91.154,54.018,88.546,50.811,88.546L50.811,88.546z" fill="#FFFFFF"/><path d="M76.957,88.546c-3.207,0-5.818,2.608-5.818,5.815c0,3.209,2.611,5.818,5.818,5.818    c3.209,0,5.818-2.609,5.818-5.818C82.775,91.154,80.166,88.546,76.957,88.546L76.957,88.546z" fill="#FFFFFF"/><path d="M37.736,75.562c-3.209,0-5.818,2.608-5.818,5.815c0,3.208,2.609,5.817,5.818,5.817    c3.207,0,5.818-2.609,5.818-5.817C43.555,78.173,40.943,75.562,37.736,75.562L37.736,75.562z" fill="#FFFFFF"/><path d="M63.883,75.562c-3.207,0-5.818,2.608-5.818,5.815c0,3.208,2.611,5.817,5.818,5.817    c3.209,0,5.818-2.609,5.818-5.817C69.701,78.173,67.092,75.562,63.883,75.562L63.883,75.562z" fill="#FFFFFF"/><path d="M37.736,101.525c-3.209,0-5.818,2.608-5.818,5.815c0,3.208,2.609,5.818,5.818,5.818    c3.207,0,5.818-2.61,5.818-5.818C43.555,104.136,40.943,101.525,37.736,101.525L37.736,101.525z" fill="#FFFFFF"/><path d="M63.883,101.525c-3.207,0-5.818,2.608-5.818,5.815c0,3.208,2.611,5.818,5.818,5.818    c3.209,0,5.818-2.61,5.818-5.818C69.701,104.136,67.092,101.525,63.883,101.525L63.883,101.525z" fill="#FFFFFF"/><path d="M90.031,75.562c-3.207,0-5.818,2.608-5.818,5.815c0,3.208,2.611,5.817,5.818,5.817    c3.209,0,5.818-2.609,5.818-5.817C95.85,78.173,93.24,75.562,90.031,75.562L90.031,75.562z" fill="#FFFFFF"/><path d="M90.031,101.525c-3.207,0-5.818,2.608-5.818,5.815c0,3.208,2.611,5.818,5.818,5.818    c3.209,0,5.818-2.61,5.818-5.818C95.85,104.136,93.24,101.525,90.031,101.525L90.031,101.525z" fill="#FFFFFF"/></g><path d="M72.531,14.839c11.424,0,20.715,9.294,20.715,20.717c0,0.538-0.021,1.086-0.066,1.638   c5.051,2.386,8.271,7.424,8.271,13.065c0,7.969-6.484,14.452-14.451,14.452H40.77c-7.969,0-14.453-6.483-14.453-14.452   c0-7.186,5.373-13.296,12.395-14.303c1.086-6.817,6.918-11.85,13.928-11.85c0.832,0,1.666,0.075,2.486,0.222   C58.924,18.455,65.52,14.839,72.531,14.839" fill="#7B82AD"/></g></svg>